<?xml version="1.0" standalone="no"?>
<!DOCTYPE svg PUBLIC "-//W3C//DTD SVG 20010904//EN"
 "http://www.w3.org/TR/2001/REC-SVG-20010904/DTD/svg10.dtd">
<svg version="1.0" xmlns="http://www.w3.org/2000/svg"
 width="700.000000pt" height="700.000000pt" viewBox="0 0 700.000000 700.000000"
 preserveAspectRatio="xMidYMid meet">
<metadata>
Created by potrace 1.11, written by Peter Selinger 2001-2013
</metadata>
<g transform="translate(0.000000,700.000000) scale(0.100000,-0.100000)"
fill="#000000" stroke="none">
<path d="M2835 6753 c-163 -22 -450 -103 -542 -152 -10 -5 -65 -33 -123 -61
-381 -189 -761 -552 -1004 -960 -188 -317 -351 -769 -401 -1115 -3 -22 -8 -53
-10 -70 -35 -213 -38 -585 -6 -775 41 -243 163 -567 365 -970 153 -304 342
-640 380 -673 12 -10 35 -31 51 -45 17 -15 75 -65 130 -111 55 -46 111 -93
125 -105 160 -135 480 -352 720 -489 136 -77 375 -183 500 -222 l55 -17 0
-267 c-1 -146 1 -273 4 -281 6 -16 72 -78 211 -200 40 -36 92 -82 114 -102 23
-20 54 -48 70 -62 l29 -25 56 43 c31 23 148 109 261 191 113 82 207 150 208
151 4 3 5 17 17 284 4 85 8 180 10 210 2 30 4 69 4 85 1 25 8 34 44 52 297
155 373 198 612 339 438 259 652 440 939 794 89 109 219 297 281 405 35 60
155 301 155 310 0 4 6 21 14 38 29 66 90 250 111 337 21 85 51 224 60 280 4
25 9 54 11 65 2 11 6 44 10 73 3 29 7 61 9 71 19 99 26 540 12 725 -48 618
-241 1172 -551 1584 -251 333 -685 590 -1091 646 -27 4 -64 10 -81 12 -53 8
-226 8 -289 0 -80 -10 -195 -41 -253 -68 -62 -30 -252 -218 -329 -327 -1 -2
-22 18 -45 45 -77 91 -226 232 -285 271 -73 49 -97 60 -153 73 -46 11 -350 21
-405 13z m1502 -956 c115 -49 372 -200 488 -287 220 -165 381 -391 498 -700
64 -169 101 -308 131 -497 29 -177 27 -532 -4 -693 -6 -30 -13 -71 -16 -90 -9
-55 -71 -263 -92 -312 -11 -23 -35 -77 -53 -118 -19 -41 -69 -140 -111 -220
-43 -79 -78 -146 -78 -147 0 -2 -10 -20 -23 -41 -13 -20 -50 -86 -82 -147
-244 -463 -396 -669 -606 -825 -79 -59 -292 -194 -379 -241 -25 -13 -47 -26
-50 -29 -11 -11 -110 -58 -110 -52 0 5 133 315 200 467 10 22 57 130 105 240
48 110 94 216 103 235 9 19 17 37 18 40 2 10 189 440 230 528 13 29 24 54 24
57 0 2 57 133 126 292 69 158 133 306 142 328 9 22 34 73 55 115 58 114 69
147 72 240 2 47 7 141 10 209 l6 123 -381 762 c-209 418 -380 766 -380 773 0
20 31 31 64 23 17 -4 59 -19 93 -33z m-1148 -40 c-134 -167 -381 -508 -490
-677 -101 -155 -118 -184 -195 -322 -205 -366 -269 -612 -228 -868 29 -181
265 -884 409 -1215 7 -16 36 -88 65 -160 51 -128 62 -155 93 -225 8 -19 49
-115 91 -212 68 -160 255 -579 277 -620 8 -15 5 -15 -44 -2 -28 8 -59 17 -67
19 -191 52 -579 260 -729 390 -202 175 -292 271 -415 442 -36 51 -66 95 -66
98 0 2 -15 28 -34 57 -29 47 -92 172 -138 278 -66 149 -145 450 -164 619 -3
31 -7 58 -10 62 -17 28 -25 508 -11 650 6 65 29 204 51 310 14 65 70 230 107
315 156 357 374 600 754 842 43 27 283 142 296 142 8 0 19 4 25 9 19 18 269
92 355 106 19 3 48 9 64 14 48 13 48 3 4 -52z"/>
</g>
</svg>
