<svg xmlns="http://www.w3.org/2000/svg" viewBox="0 0 105.83 105.83">
  <path fill="#332d3b" d="M45.038 3.616c-4.388.079-8.881 1.519-12.704 3.551-6.552 3.484-12.103 9.338-15.598 15.884-4.313 8.078-6.514 17.79-5.58 26.902.955 9.309 11.162 25.758 11.162 25.758C36.913 88.875 46.5 90.879 46.5 90.879v8.443l6.438 5.724 8.014-5.868.43-9.158S75.138 83.25 80.556 78c5.283-5.118 9.878-11.373 12.307-18.316 2.907-8.311 3.447-17.62 2.145-26.328-1.03-6.903-3.601-13.832-7.726-19.462-2.365-3.227-5.73-5.78-9.301-7.584-3.077-1.555-6.573-2.408-10.017-2.575-2.17-.106-4.423.196-6.44 1.001-2.101.84-5.294 5.15-5.294 5.15s-4.256-5.302-6.868-5.866a18.886 18.886 0 0 0-4.325-.403zm18.595 14.002c1.618-.062 7.267 3.39 9.483 5.003 2.326 1.693 4.189 4.066 5.581 6.583 2.06 3.722 3.333 7.942 3.864 12.163.518 4.124.288 8.415-.715 12.449-1.077 4.329-3.434 8.254-5.581 12.164-2.325 4.233-4.462 8.74-7.87 12.162-2.894 2.906-10.303 6.726-10.303 6.726l16.312-37.491.287-6.153-11.305-22.61c-.343-.685-.206-.979.247-.996zm-14.7.281S37.222 32.162 34.768 40.795c-.73 2.57-.717 5.44 0 8.014 3.928 14.108 13.88 35.201 13.88 35.201S24.344 79.2 23.033 50.383c-1.345-29.58 25.901-32.484 25.901-32.484z"/>
  <path fill="#857c8d" d="M71.647 17.187c4.493 1.506 8.106 5.429 10.629 9.44 2.958 4.703 4.155 10.487 4.58 16.026.436 5.705-.205 11.648-2.147 17.029-1.959 5.427-5.226 10.512-9.302 14.596-1 1.002-3.577 2.29-3.577 2.29s3.709-6.442 5.438-9.731c1.856-3.531 4.086-6.93 5.294-10.732 1.2-3.775 1.882-7.774 1.86-11.734-.015-2.855-.482-5.75-1.43-8.443-1.398-3.968-3.485-7.766-6.154-11.018-2.425-2.956-8.729-7.441-8.729-7.441s2.417-.657 3.538-.282z"/>
  <g>
    <path fill="#e7b56a" d="M35.77 45.516c.504-2.238 2.354-4.102 4.22-5.437 3.16-2.26 7.19-3.14 11.019-3.793 3.573-.61 7.344-.892 10.875-.071 3.169.737 6.133 2.404 8.729 4.364.903.682 1.71 1.534 2.29 2.504.777 1.302 1.767 2.8 1.502 4.293-.545 3.07-3.772 4.984-5.938 7.227-2.055 2.127-4.24 4.159-6.654 5.867-1.16.82-2.383 1.598-3.721 2.074-1.666.594-3.463 1.105-5.223.93-2.6-.257-5.126-1.409-7.298-2.861-2.117-1.416-3.7-3.524-5.294-5.51-1.347-1.676-2.736-3.388-3.578-5.366-.564-1.326-1.247-2.816-.93-4.221z"/>
    <g fill="#3c3954">
      <path d="M40.635 46.446s4.141-3.298 6.582-3.22c2.114.068 3.66 1.024 5.51 3.148l-4.651 2.004-1.36.644L45 48.52zM55.16 46.088l4.65-2.003c1.98-.954 2.671-.62 4.436-.072l3.22 2.075-3.864 2.29c-1.503 1.168-1.431 1.264-3.864.286zM54.183 45.234l3.44 8.5-6.425-.153zM51.197 54.714l2.833 2.176 3.592-2.024z"/>
    </g>
  </g>
</svg>
